<svg width="284.47" height="69.018" fill="none" version="1.1" viewBox="0 0 284.47 69.018" xmlns="http://www.w3.org/2000/svg">
 <mask id="b" x="61" y="12" width="236" height="68" maskUnits="userSpaceOnUse">
  <path d="m296.92 12.017h-235.72v67.983h235.72z" fill="#fff"/>
 </mask>
 <g fill="#1e1e1c" mask="url(#b)">
  <path d="m159.64 13.048h-20.418v29.838h20.418c-1.506-1.4749-2.779-3.1678-3.774-5.0272h-10.645v-7.4537h8.325c-0.21-1.6652-0.202-3.3502 0.02-5.0114h-8.345v-7.3347h10.629c0.995-1.8515 2.268-3.5405 3.774-5.0114"/>
  <path d="m173.73 37.859c-5.475 0-9.912-4.4366-9.912-9.9118 0-5.4753 4.437-9.9118 9.912-9.9118 2.577 0.0198 5.043 1.0665 6.847 2.9061l4.214-4.2938c-2.926-2.9537-6.902-4.6268-11.061-4.6506-8.647 0-15.673 7.1563-15.673 15.97s7.022 15.922 15.673 15.922 15.625-7.1563 15.625-15.922h-15.625v5.6814h7.929c-1.788 2.6247-4.753 4.1987-7.929 4.2066"/>
  <path d="m277.53 18.055h6.934v-5.0074h-19.911v5.0114h6.978v24.827h6.015v-24.831zm-20.795 14.67h-8.12l4.084-12.346zm1.586 5.0113 1.669 5.1542h6.582l-10.007-29.838h-7.51l-10.094 29.838h6.364l1.756-5.1542zm-33.062-19.685h10.273v-5.0034h-16.291v29.838h16.283v-5.0272h-10.269v-7.4537h8.481v-5.0114h-8.481v-7.3387zm-25.588 9.8206v-9.769h3.247c2.985 0 4.829 2.0339 4.829 4.8964s-1.931 4.8806-5.356 4.8806h-2.72zm0 3.1718 8.032 11.854h7.292l-8.077-11.454c4.508-1.1735 6.927-4.2898 6.927-9.0038 0-6.1295-3.905-9.3964-11.149-9.3964h-9.044v29.838h6.015v-11.854 0.0158z"/>
  <path d="m82.803 59.439c-0.8563 1.0348-2.1251 1.6414-3.4691 1.6572-0.6978 8e-3 -1.3916-0.1546-2.0141-0.4718-0.6026-0.3092-1.1418-0.7334-1.5859-1.2488-0.4519-0.5194-0.8127-1.1141-1.0585-1.7564-0.2577-0.6423-0.3925-1.3242-0.3965-2.0141 0-0.7057 0.1229-1.4075 0.3727-2.0696 0.2379-0.6383 0.5907-1.229 1.0427-1.7405 0.444-0.4956 0.9832-0.9 1.5859-1.1894 0.6185-0.3013 1.2964-0.452 1.9823-0.448 0.4877-4e-3 0.9714 0.0555 1.4432 0.1744 0.4084 0.1071 0.8009 0.2696 1.1656 0.4877 0.3331 0.2022 0.6304 0.452 0.8842 0.7454 0.2497 0.2894 0.4599 0.6105 0.6303 0.9515l-0.8088 0.5313c-0.3052-0.6185-0.7889-1.13-1.3836-1.4749-0.5908-0.3211-1.2569-0.4837-1.9309-0.4718-0.5629 0-1.122 0.1308-1.6215 0.3965-0.4758 0.2497-0.896 0.5907-1.2331 1.011-0.3488 0.4282-0.6184 0.9198-0.7929 1.4431-0.1824 0.5432-0.2736 1.1101-0.2736 1.6811 0 0.5907 0.1031 1.1775 0.3133 1.7325 0.1942 0.5274 0.4876 1.015 0.8603 1.4392 0.3608 0.4084 0.7969 0.7375 1.2846 0.9793 0.4916 0.2419 1.0348 0.3687 1.5858 0.3648 0.6185 0 1.2251-0.1467 1.7723-0.4322 0.6304-0.3449 1.1815-0.8127 1.6215-1.3757v-1.8079h-2.3827v-0.8326h3.3026v5.3087h-0.8961v-1.5859z"/>
  <path d="m89.813 54.007c-0.6542 4e-3 -1.2886 0.2062-1.8238 0.5789-0.5194 0.3687-0.904 0.9-1.0943 1.5066v4.9281h-1.0348v-7.9294h0.9754v1.9031c0.2656-0.5749 0.674-1.0665 1.1894-1.4313 0.4638-0.333 1.0149-0.5114 1.5859-0.5154 0.0674-0.0079 0.1308-0.0079 0.1982 0v0.9594z"/>
  <path d="m94.317 61.172c-0.5472 0.0039-1.0864-0.1071-1.5859-0.3291-0.4758-0.2101-0.904-0.5154-1.2568-0.896-0.3569-0.3846-0.6383-0.8286-0.8287-1.3163-0.1982-0.5035-0.3013-1.0427-0.2973-1.5859-4e-3 -0.5432 0.0951-1.0824 0.2973-1.5859 0.1904-0.4797 0.4679-0.9158 0.8207-1.2925 0.3569-0.3766 0.7851-0.674 1.2569-0.8841 1.011-0.4361 2.1607-0.4361 3.1717 0 0.4679 0.2101 0.8921 0.5114 1.241 0.8881 0.7097 0.7771 1.0982 1.792 1.0942 2.8427v0.2418c8e-3 0.0555 8e-3 0.111 0 0.1666h-6.8034c0.0238 0.4123 0.1269 0.8127 0.2973 1.1894 0.1586 0.3489 0.3767 0.666 0.6463 0.9356 0.2577 0.2617 0.5669 0.4679 0.9039 0.6146 0.341 0.1467 0.7137 0.222 1.0864 0.222 0.2577 0 0.5154-0.0357 0.7612-0.1071 0.2419-0.0674 0.4797-0.1665 0.6978-0.2894 0.2141-0.1229 0.4084-0.2735 0.5788-0.448 0.1666-0.1705 0.3014-0.3687 0.3965-0.5868l0.896 0.2419c-0.1229 0.2934-0.2973 0.563-0.5154 0.7929-0.2339 0.2419-0.4995 0.452-0.7929 0.6225-0.3053 0.1784-0.6344 0.3092-0.9753 0.3965-0.3529 0.103-0.7216 0.1585-1.0903 0.1665zm2.9299-4.5317c-0.0476-0.781-0.3806-1.5185-0.9357-2.0696-0.2577-0.2537-0.563-0.4559-0.896-0.5947-0.3449-0.1427-0.7137-0.218-1.0863-0.2141-0.3767 0-0.7454 0.0714-1.0943 0.2141-0.337 0.1388-0.6423 0.341-0.904 0.5947-0.2656 0.2617-0.4757 0.5709-0.6224 0.9119-0.1586 0.3648-0.2538 0.7573-0.2815 1.1577z"/>
  <path d="m101.85 61.172c-0.357 0-0.71-0.0595-1.043-0.1903-0.309-0.119-0.595-0.2974-0.8367-0.5234-0.4837-0.452-0.7573-1.0863-0.7533-1.7484 0-0.337 0.0793-0.6661 0.2418-0.9595 0.1705-0.3013 0.4044-0.563 0.6862-0.7612 0.317-0.226 0.674-0.3925 1.05-0.4956 0.437-0.1189 0.888-0.1784 1.34-0.1744 0.413 0 0.825 0.0356 1.233 0.107 0.381 0.0634 0.754 0.1626 1.111 0.3053v-0.7137c0.031-0.6105-0.183-1.2132-0.595-1.6651-0.436-0.4282-1.031-0.6503-1.641-0.6146-0.429 0-0.853 0.0873-1.249 0.2419-0.456 0.1784-0.892 0.4123-1.293 0.6978l-0.3646-0.6859c0.8686-0.6383 1.9066-0.9991 2.9816-1.0348 0.86-0.0476 1.709 0.2537 2.343 0.8365 0.591 0.6185 0.9 1.4551 0.852 2.3115v3.5682c-0.039 0.1943 0.088 0.3806 0.278 0.4203 0.04 0.0079 0.079 0.0079 0.119 0v0.9119c-0.131 0.0277-0.262 0.0436-0.397 0.0475-0.222 0.0119-0.44-0.0555-0.614-0.1982-0.151-0.1427-0.234-0.341-0.234-0.5471l-0.032-0.6225c-0.361 0.4718-0.832 0.8485-1.376 1.0943-0.566 0.2616-1.185 0.3925-1.807 0.3885zm0.241-0.793c0.52 4e-3 1.031-0.103 1.503-0.3171 0.408-0.1666 0.761-0.4401 1.027-0.793 0.087-0.0832 0.158-0.1863 0.206-0.2973 0.044-0.0952 0.063-0.1943 0.067-0.2974v-1.2925c-0.348-0.1348-0.705-0.2339-1.07-0.3053-0.373-0.0713-0.753-0.107-1.134-0.107-0.626-0.0278-1.245 0.1308-1.78 0.4559-0.424 0.2458-0.682 0.6978-0.686 1.1894 0 0.2379 0.048 0.4718 0.143 0.6859 0.095 0.2102 0.23 0.3965 0.396 0.5551 0.175 0.1625 0.381 0.2894 0.603 0.3727 0.23 0.0951 0.476 0.1467 0.725 0.1546z"/>
  <path d="m111.79 60.64-0.266 0.1229c-0.115 0.0515-0.249 0.1031-0.396 0.1507-0.171 0.0555-0.341 0.103-0.515 0.1387-0.199 0.0397-0.405 0.0595-0.607 0.0595-0.218 0-0.432-0.0317-0.638-0.0912-0.195-0.0555-0.377-0.1507-0.532-0.2815-0.154-0.1308-0.281-0.2934-0.364-0.4797-0.096-0.2101-0.143-0.4401-0.139-0.6701v-5.6735h-1.094v-0.8207h1.094v-2.6761h1.035v2.6761h1.823v0.8207h-1.823v5.3841c0 0.2538 0.115 0.4916 0.313 0.6463 0.186 0.1387 0.412 0.2101 0.646 0.2061 0.27 8e-3 0.543-0.0396 0.793-0.1427 0.147-0.0595 0.289-0.1269 0.424-0.2062z"/>
  <path d="m117.18 61.021v-10.8h1.082v10.8z"/>
  <path d="m127.38 61.021h-1.034v-4.4286c0.051-0.7096-0.096-1.4193-0.421-2.0537-0.281-0.4282-0.773-0.67-1.284-0.6383-0.314 0-0.619 0.0595-0.912 0.1665-0.305 0.111-0.591 0.2696-0.845 0.4718-0.249 0.2101-0.471 0.456-0.658 0.7256-0.198 0.2735-0.349 0.5788-0.44 0.9039v4.8528h-1.035v-7.9294h0.944v1.8158c0.329-0.5828 0.809-1.0665 1.392-1.3995 0.598-0.3529 1.284-0.5392 1.982-0.5313 0.384-0.0119 0.765 0.0714 1.11 0.2419 0.301 0.1585 0.551 0.3964 0.73 0.6859 0.198 0.333 0.333 0.6977 0.396 1.0784 0.083 0.4678 0.127 0.9396 0.123 1.4154v4.6387z"/>
  <path d="m133.25 60.64-0.266 0.1229c-0.115 0.0515-0.249 0.1031-0.396 0.1507-0.171 0.0555-0.341 0.103-0.515 0.1387-0.199 0.0397-0.405 0.0595-0.607 0.0595-0.218 0-0.432-0.0317-0.638-0.0912-0.195-0.0555-0.377-0.1507-0.532-0.2815-0.154-0.1308-0.281-0.2934-0.364-0.4797-0.096-0.2101-0.143-0.4401-0.139-0.6701v-5.6735h-1.094v-0.8207h1.094v-2.6761h1.035v2.6761h1.823v0.8207h-1.823v5.3841c0 0.2538 0.115 0.4916 0.313 0.6463 0.186 0.1387 0.412 0.2101 0.646 0.2061 0.27 8e-3 0.543-0.0396 0.793-0.1427 0.147-0.0595 0.289-0.1269 0.424-0.2062z"/>
  <path d="m137.74 61.172c-0.547 0.0039-1.086-0.1071-1.586-0.3291-0.476-0.2101-0.904-0.5154-1.257-0.896-0.356-0.3846-0.638-0.8286-0.828-1.3163-0.198-0.5035-0.302-1.0427-0.298-1.5859-4e-3 -0.5432 0.096-1.0824 0.298-1.5859 0.19-0.4797 0.468-0.9158 0.82-1.2925 0.357-0.3766 0.785-0.674 1.257-0.8841 1.011-0.4361 2.161-0.4361 3.172 0 0.468 0.2101 0.892 0.5114 1.241 0.8881 0.71 0.7771 1.102 1.792 1.094 2.8427v0.2418c8e-3 0.0555 8e-3 0.111 0 0.1666h-6.803c0.024 0.4123 0.127 0.8127 0.297 1.1894 0.159 0.3489 0.377 0.666 0.646 0.9356 0.258 0.2617 0.567 0.4679 0.904 0.6146 0.341 0.1467 0.714 0.222 1.087 0.222 0.257 0 0.515-0.0357 0.761-0.1071 0.242-0.0674 0.48-0.1665 0.698-0.2894 0.214-0.1229 0.408-0.2735 0.579-0.448 0.166-0.1705 0.301-0.3687 0.396-0.5868l0.896 0.2419c-0.123 0.2934-0.297 0.563-0.515 0.7929-0.234 0.2419-0.5 0.452-0.793 0.6225-0.306 0.1784-0.635 0.3092-0.976 0.3965-0.352 0.103-0.721 0.1585-1.09 0.1665zm2.922-4.5317c-0.047-0.781-0.381-1.5185-0.936-2.0696-0.257-0.2537-0.563-0.4559-0.896-0.5947-0.345-0.1427-0.713-0.218-1.086-0.2141-0.377 0-0.745 0.0714-1.094 0.2141-0.337 0.1388-0.642 0.341-0.904 0.5947-0.266 0.2617-0.476 0.5709-0.623 0.9119-0.158 0.3648-0.253 0.7573-0.281 1.1577z"/>
  <path d="m146.55 61.128c-0.52 0.0079-1.035-0.111-1.499-0.341-0.452-0.222-0.856-0.5273-1.189-0.904-0.333-0.3806-0.595-0.8167-0.77-1.2925-0.182-0.4797-0.273-0.9911-0.273-1.5065 0-0.5392 0.087-1.0784 0.266-1.5859 0.166-0.4837 0.42-0.9278 0.753-1.3163 0.321-0.3727 0.717-0.678 1.161-0.896 0.468-0.226 0.98-0.341 1.499-0.3331 0.627-0.0158 1.241 0.1626 1.764 0.5115 0.504 0.3449 0.936 0.781 1.277 1.2845v-1.6572h0.928v7.9611c8e-3 0.4996-0.099 0.9991-0.313 1.4511-0.199 0.4084-0.484 0.7692-0.837 1.0586-0.365 0.2934-0.785 0.5075-1.233 0.6383-0.488 0.1427-0.991 0.2181-1.499 0.2141-0.765 0.0357-1.526-0.1348-2.204-0.4876-0.551-0.3172-1.019-0.7692-1.356-1.3084l0.638-0.5035c0.294 0.4876 0.73 0.8801 1.249 1.118 0.524 0.2379 1.095 0.3608 1.673 0.3569 0.369 0 0.742-0.0516 1.095-0.1586 0.329-0.0992 0.634-0.2577 0.904-0.4718 0.261-0.2141 0.471-0.4837 0.614-0.793 0.159-0.3489 0.238-0.7335 0.23-1.118v-1.5859c-0.305 0.4995-0.733 0.9119-1.249 1.1894-0.491 0.2974-1.054 0.4599-1.629 0.4758zm0.289-0.8683c0.305 0 0.611-0.0555 0.896-0.1665 0.286-0.1071 0.551-0.2577 0.793-0.448 0.23-0.1784 0.432-0.3925 0.603-0.6304 0.154-0.2141 0.261-0.456 0.321-0.7137v-2.4502c-0.111-0.2854-0.266-0.5511-0.456-0.7929-0.186-0.2379-0.408-0.448-0.654-0.6225-0.246-0.1665-0.512-0.3013-0.793-0.3964-0.27-0.0992-0.555-0.1507-0.845-0.1507-0.412-0.0079-0.82 0.0912-1.189 0.2815-0.345 0.1824-0.646 0.4321-0.888 0.7374-0.246 0.3093-0.432 0.6582-0.555 1.0348-0.127 0.3846-0.191 0.785-0.191 1.1894 0 0.4163 0.076 0.8287 0.23 1.2172 0.143 0.3727 0.357 0.7176 0.631 1.011 0.265 0.2855 0.583 0.5194 0.935 0.6859 0.365 0.1586 0.766 0.23 1.162 0.2141z"/>
  <path d="m156.72 54.007c-0.65 4e-3 -1.288 0.2062-1.824 0.5789-0.519 0.3687-0.904 0.9-1.094 1.5066v4.9281h-1.046v-7.9294h0.975v1.9031c0.265-0.5749 0.674-1.0665 1.189-1.4313 0.464-0.333 1.015-0.5114 1.586-0.5154 0.068-0.0079 0.131-0.0079 0.198 0v0.9436z"/>
  <path d="m160.12 61.172c-0.357 0-0.71-0.0595-1.043-0.1903-0.309-0.119-0.594-0.2974-0.836-0.5234-0.484-0.452-0.758-1.0863-0.754-1.7484 0-0.337 0.08-0.6661 0.242-0.9595 0.171-0.3013 0.405-0.563 0.686-0.7612 0.317-0.226 0.674-0.3925 1.051-0.4956 0.436-0.1189 0.888-0.1784 1.34-0.1744 0.412 0 0.825 0.0356 1.233 0.107 0.381 0.0634 0.753 0.1626 1.11 0.3053v-0.7137c0.032-0.6105-0.182-1.2132-0.595-1.6651-0.436-0.4282-1.031-0.6503-1.641-0.6146-0.428 0-0.852 0.0873-1.249 0.2419-0.456 0.1784-0.892 0.4123-1.292 0.6978l-0.365-0.6859c0.868-0.6383 1.907-0.9991 2.981-1.0348 0.861-0.0476 1.709 0.2537 2.343 0.8365 0.591 0.6185 0.9 1.4551 0.853 2.3115v3.5682c-0.04 0.1943 0.087 0.3806 0.277 0.4203 0.04 0.0079 0.08 0.0079 0.119 0v0.9119c-0.131 0.0277-0.261 0.0436-0.396 0.0475-0.222 0.0119-0.44-0.0555-0.615-0.1982-0.15-0.1427-0.234-0.341-0.234-0.5471l-0.031-0.6225c-0.361 0.4718-0.833 0.8485-1.376 1.0943-0.567 0.2616-1.186 0.3925-1.808 0.3885zm0.242-0.793c0.511 4e-3 1.015-0.0991 1.483-0.3053 0.408-0.1665 0.761-0.44 1.026-0.7929 0.088-0.0833 0.159-0.1863 0.207-0.2973 0.043-0.0952 0.063-0.1943 0.067-0.2974v-1.2925c-0.349-0.1348-0.71-0.2339-1.074-0.3053-0.373-0.0713-0.754-0.107-1.134-0.107-0.627-0.0278-1.245 0.1308-1.78 0.4559-0.425 0.2458-0.682 0.6978-0.686 1.1894 0 0.2379 0.047 0.4718 0.142 0.6859 0.096 0.2102 0.23 0.3965 0.397 0.5551 0.174 0.1625 0.377 0.2894 0.599 0.3727 0.237 0.0951 0.495 0.1427 0.753 0.1427z"/>
  <path d="m170.06 60.64-0.265 0.1229c-0.115 0.0515-0.25 0.1031-0.397 0.1507-0.17 0.0555-0.341 0.103-0.515 0.1387-0.202 0.0397-0.405 0.0595-0.611 0.0595-0.218 0-0.432-0.0317-0.638-0.0912-0.194-0.0555-0.377-0.1507-0.531-0.2815-0.155-0.1308-0.282-0.2934-0.365-0.4797-0.095-0.2101-0.139-0.4401-0.135-0.6701v-5.6735h-1.094v-0.8207h1.094v-2.6761h1.035v2.6761h1.824v0.8207h-1.824v5.3841c0 0.2538 0.115 0.4916 0.313 0.6463 0.187 0.1387 0.413 0.2101 0.646 0.2061 0.27 8e-3 0.544-0.0396 0.793-0.1427 0.147-0.0595 0.29-0.1269 0.425-0.2062z"/>
  <path d="m171.36 51.438v-1.5224h1.035v1.5224zm0 9.5827v-7.9294h1.035v7.9294z"/>
  <path d="m178.1 61.172c-0.547 0.0079-1.086-0.1071-1.586-0.3291-0.468-0.2101-0.888-0.5115-1.241-0.8881-0.353-0.3806-0.626-0.8247-0.813-1.3084-0.194-0.5074-0.293-1.0427-0.289-1.5858 0-0.5432 0.099-1.0824 0.297-1.5859 0.191-0.4837 0.468-0.9278 0.821-1.3084 0.353-0.3766 0.773-0.6819 1.241-0.896 0.496-0.23 1.039-0.341 1.586-0.333 0.547-8e-3 1.09 0.107 1.586 0.333 0.472 0.2141 0.896 0.5194 1.249 0.896 0.352 0.3806 0.63 0.8247 0.82 1.3084 0.199 0.5035 0.302 1.0427 0.298 1.5859 4e-3 0.5431-0.095 1.0784-0.29 1.5858-0.186 0.4837-0.46 0.9278-0.813 1.3084-0.352 0.3766-0.777 0.678-1.248 0.8881-0.508 0.226-1.063 0.337-1.618 0.3291zm-2.874-4.0758c0 0.4243 0.075 0.8445 0.23 1.241 0.142 0.3687 0.352 0.7057 0.614 1.0031 0.254 0.2854 0.563 0.5154 0.912 0.6779 0.349 0.1626 0.733 0.2458 1.118 0.2419 0.389 0 0.769-0.0833 1.118-0.2498s0.662-0.4004 0.92-0.6859c0.265-0.2973 0.48-0.6383 0.622-1.011 0.306-0.8009 0.306-1.685 0-2.4859-0.142-0.3766-0.353-0.7215-0.622-1.0189-0.258-0.2855-0.571-0.5194-0.92-0.6859s-0.729-0.2537-1.118-0.2498c-0.385 0-0.765 0.0833-1.11 0.2498-0.345 0.1705-0.658 0.4044-0.912 0.6938-0.27 0.3013-0.48 0.6502-0.622 1.0269-0.155 0.4004-0.234 0.8246-0.23 1.2528z"/>
  <path d="m190.44 61.021h-1.035v-4.4286c0.052-0.7096-0.091-1.4193-0.416-2.0537-0.282-0.4282-0.773-0.67-1.285-0.6383-0.313 0-0.618 0.0595-0.912 0.1665-0.305 0.111-0.59 0.2696-0.844 0.4718-0.262 0.2101-0.496 0.452-0.69 0.7256-0.198 0.2735-0.349 0.5788-0.44 0.9039v4.8528h-1.035v-7.9294h0.944v1.8158c0.329-0.5828 0.809-1.0665 1.391-1.3995 0.599-0.3529 1.285-0.5392 1.983-0.5313 0.384-0.0119 0.765 0.0714 1.11 0.2419 0.301 0.1585 0.551 0.3964 0.729 0.6859 0.199 0.333 0.334 0.6977 0.397 1.0784 0.083 0.4678 0.127 0.9396 0.123 1.4154v4.6387z"/>
  <path d="m192.61 61.021v-1.4907h0.896v1.4907z"/>
  <path d="m127.74 18.059h6.934v-5.0114h-19.93v5.0114h6.978v24.827h6.014v-24.827zm-35.722 5.947 12.291 18.876h5.883v-29.834h-6.018v18.606l-12.247-18.606h-5.9233v29.834h6.0105v-18.876zm-11.894-10.958h-5.9986v29.838h6.0145v-29.838z"/>
 </g>
 <path d="m69.015 9.7864v49.452c0 5.397-4.3801 9.7771-9.7864 9.7771h-49.452c-5.397 0-9.7772-4.3801-9.7772-9.7771v-49.452c0-5.4062 4.3802-9.7864 9.7772-9.7864h49.452c5.4063 0 9.7864 4.3802 9.7864 9.7864z" fill="#fbda16"/>
 <path d="m69.027 38.596v20.645c0 5.397-4.3802 9.7771-9.7864 9.7771h-23.387l-15.42-16.131c-1.2262-0.9271-2.3327-1.9853-3.3703-3.1172-0.8627-0.9386-1.6034-1.9807-2.2798-3.0666-0.6648-1.0697-1.2515-2.1785-1.7277-3.3426-0.5406-1.3228-0.98-2.6778-1.2606-4.0834-0.0875-0.4371-0.1519-0.8788-0.2163-1.3182v-0.0046c-0.046-0.3221-0.0897-0.6442-0.1403-0.9662-0.092-0.6051-0.1289-1.2078-0.1427-1.8128v-0.0046c-0.0115-0.5245-0.0046-1.0491 0-1.5736 0.0092-0.9524 0.1542-1.9002 0.3106-2.8388 0.069-0.4187 0.1495-0.8351 0.2439-1.2469 0.3059-1.3872 0.7338-2.7353 1.2998-4.042 0.3657-0.8489 0.8051-1.6633 1.256-2.4731 0.4486-0.8028 0.9663-1.5551 1.5184-2.2821 0.3359-0.4417 0.6832-0.8742 1.0329-1.3067 0.3106-0.3795 0.6787-0.7108 1.0214-1.0628 0.2485-0.2531 0.4992-0.5084 0.7546-0.7546 0.3359-0.3243 0.681-0.6372 1.0513-0.9202 0.9064-0.6901 1.8082-1.3895 2.8136-1.9462 0.5636-0.3106 1.1134-0.6442 1.6931-0.9179 0.9203-0.4394 1.8635-0.8282 2.832-1.1526 0.1242-0.0414 0.2461-0.0805 0.3704-0.1173 0.6257-0.1955 1.2583-0.3566 1.8956-0.4992 0.6142-0.138 1.2377-0.237 1.8611-0.3244 0.1817-0.023 0.3612-0.0483 0.5429-0.0713 1.1089-0.1449 2.2246-0.1495 3.3404-0.1173 1.516 0.046 3.009 0.2599 4.4814 0.6211 0.0575 0.0161 0.1403 0.0138 0.1771 0.0598l4.6333 4.8426c0.4509-0.115 0.9202-0.1771 1.4033-0.1771 1.8795-0.0023 3.5382 0.8811 4.5826 2.266h0.0046l17.541 18.349 0.069 0.0736h0.0069z" fill="url(#a)" opacity=".5"/>
 <path d="m51.566 22.653c-0.0069 3.0551-2.5604 5.6822-5.7374 5.6615-3.0735 0.0069-5.6892-2.5282-5.6961-5.696-0.0069-3.207 2.5812-5.7444 5.6846-5.7513 3.2-0.0046 5.7559 2.5627 5.7466 5.7858z" fill="#fff"/>
 <path d="m57.304 34.995c-0.0115 1.3527-0.161 2.6916-0.4256 4.019-0.2944 1.477-0.743 2.9033-1.3044 4.302-0.3658 0.9156-0.8144 1.7875-1.2952 2.641-0.6556 1.1594-1.4148 2.2522-2.2844 3.2667-0.5705 0.6672-1.1456 1.332-1.7875 1.9324-0.9593 0.8949-1.9669 1.7277-3.062 2.4639-1.1571 0.7776-2.3718 1.4424-3.6417 2.006-1.3067 0.5775-2.6571 1.0284-4.0558 1.3366-0.6924 0.1519-1.3918 0.2439-2.0865 0.3681-1.332 0.237-2.6709 0.2324-4.0098 0.2025-1.2768-0.0299-2.5421-0.2071-3.789-0.467-1.7714-0.3681-3.483-0.9501-5.1117-1.7369-1.148-0.5521-2.2453-1.1963-3.3013-1.9209-1.5206-1.0445-2.8572-2.2937-4.0972-3.6418-0.8627-0.9386-1.6057-1.9807-2.2798-3.0666-0.6648-1.0697-1.2538-2.1785-1.73-3.3426-0.5406-1.3228-0.9777-2.6778-1.2584-4.0834-0.1518-0.7615-0.2392-1.5276-0.3565-2.2913-0.1726-1.1273-0.1519-2.2591-0.1427-3.391 0.0092-0.9524 0.1519-1.9002 0.3106-2.8388 0.3037-1.822 0.8098-3.5911 1.5436-5.2889 0.3658-0.8489 0.8052-1.6633 1.2561-2.4708 0.7201-1.2951 1.6242-2.45 2.5513-3.5911 0.3106-0.3795 0.6786-0.7108 1.0214-1.0628 0.5728-0.5866 1.1526-1.1756 1.8036-1.6748 0.9064-0.6924 1.8105-1.3918 2.8158-1.9462 0.5614-0.3106 1.1112-0.6442 1.6909-0.9179 0.9202-0.4371 1.8634-0.8282 2.832-1.1526 0.7453-0.2484 1.5045-0.4463 2.266-0.6188 0.7913-0.1794 1.5988-0.2899 2.404-0.3957 1.1089-0.1449 2.2246-0.1495 3.3404-0.1173 1.516 0.046 3.009 0.2599 4.4814 0.6211 0.0759 0.0184 0.1978 0.0115 0.1978 0.1196 0 0.0898-0.1081 0.1174-0.1817 0.1588-0.9916 0.5567-1.8359 1.2906-2.595 2.128-0.6166 0.6809-1.1641 1.4102-1.5989 2.2222-0.4026 0.7523-0.7684 1.5161-0.9846 2.342-0.0805 0.3059-0.2301 0.398-0.5383 0.4049-2.3143 0.0391-4.4929 0.6073-6.5519 1.6793-1.4654 0.7638-2.7675 1.7346-3.9017 2.924-1.2031 1.2584-2.167 2.6824-2.8848 4.2744-0.6395 1.4194-1.026 2.9055-1.2055 4.4376-0.1633 1.3919-0.1265 2.786 0.122 4.1778 0.2507 1.3941 0.6441 2.7376 1.2583 4.0144 0.8121 1.6863 1.9049 3.1747 3.2622 4.4538 0.7959 0.7522 1.6678 1.4079 2.6226 1.9646 0.8603 0.5015 1.7483 0.9363 2.6801 1.2699 0.6395 0.23 1.2997 0.3911 1.9669 0.5314 1.2193 0.26 2.4523 0.3221 3.6923 0.2922 1.1572-0.0276 2.2867-0.2439 3.4025-0.5406 1.0835-0.2876 2.1118-0.7155 3.0919-1.2469 0.8696-0.4739 1.6954-1.0214 2.4546-1.6679 1.0997-0.9363 2.0682-1.983 2.878-3.1793 0.0552-0.0828 0.1587-0.161 0.0874-0.2738-0.0667-0.1035-0.1864-0.0713-0.2876-0.0713-0.8236-0.0023-1.6449-0.0023-2.4684-0.0023h-9.3654c-0.4279 0-0.4279 0-0.4279-0.4233v-7.1799c0-0.3888 0.0046-0.3957 0.398-0.3957h22.133c0.4463 0 0.4509 0 0.4463 0.4348z" fill="#fff"/>
 <path d="m51.566 22.653c-0.0069 3.0551-2.5605 5.6822-5.7375 5.6615-3.0735 0.0069-5.6891-2.5282-5.696-5.696-0.0069-3.207 2.5811-5.7444 5.6845-5.7513 3.2-0.0046 5.7559 2.5627 5.7467 5.7858z" fill="#000"/>
 <path d="m57.304 34.995c-0.0115 1.3527-0.161 2.6916-0.4256 4.019-0.2944 1.477-0.743 2.9033-1.3044 4.302-0.3658 0.9156-0.8144 1.7875-1.2952 2.641-0.6556 1.1594-1.4148 2.2522-2.2844 3.2667-0.5705 0.6672-1.1456 1.332-1.7875 1.9324-0.9593 0.8949-1.9669 1.7277-3.062 2.4639-1.1571 0.7776-2.3718 1.4424-3.6417 2.006-1.3067 0.5775-2.6571 1.0284-4.0558 1.3366-0.6924 0.1519-1.3918 0.2439-2.0865 0.3681-1.332 0.237-2.6709 0.2324-4.0098 0.2025-1.2768-0.0299-2.5421-0.2071-3.789-0.467-1.7714-0.3681-3.483-0.9501-5.1117-1.7369-1.148-0.5521-2.2453-1.1963-3.3013-1.9209-1.5206-1.0445-2.8572-2.2937-4.0972-3.6418-0.8627-0.9386-1.6057-1.9807-2.2798-3.0666-0.6648-1.0697-1.2538-2.1785-1.73-3.3426-0.5406-1.3228-0.9777-2.6778-1.2584-4.0834-0.1518-0.7615-0.2392-1.5276-0.3565-2.2913-0.1726-1.1273-0.1519-2.2591-0.1427-3.391 0.0092-0.9524 0.1519-1.9002 0.3106-2.8388 0.3037-1.822 0.8098-3.5911 1.5436-5.2889 0.3658-0.8489 0.8052-1.6633 1.2561-2.4708 0.7201-1.2951 1.6242-2.45 2.5513-3.5911 0.3106-0.3795 0.6786-0.7108 1.0214-1.0628 0.5728-0.5866 1.1526-1.1756 1.8036-1.6748 0.9064-0.6924 1.8105-1.3918 2.8158-1.9462 0.5614-0.3106 1.1112-0.6442 1.6909-0.9179 0.9202-0.4371 1.8634-0.8282 2.832-1.1526 0.7453-0.2484 1.5045-0.4463 2.266-0.6188 0.7913-0.1794 1.5988-0.2899 2.404-0.3957 1.1089-0.1449 2.2246-0.1495 3.3404-0.1173 1.516 0.046 3.009 0.2599 4.4814 0.6211 0.0759 0.0184 0.1978 0.0115 0.1978 0.1196 0 0.0898-0.1081 0.1174-0.1817 0.1588-0.9916 0.5567-1.8359 1.2906-2.595 2.128-0.6166 0.6809-1.1641 1.4102-1.5989 2.2222-0.4026 0.7523-0.7684 1.5161-0.9846 2.342-0.0805 0.3059-0.2301 0.398-0.5383 0.4049-2.3143 0.0391-4.4929 0.6073-6.5519 1.6793-1.4654 0.7638-2.7675 1.7346-3.9017 2.924-1.2031 1.2584-2.167 2.6824-2.8848 4.2744-0.6395 1.4194-1.026 2.9055-1.2055 4.4376-0.1633 1.3919-0.1265 2.786 0.122 4.1778 0.2507 1.3941 0.6441 2.7376 1.2583 4.0144 0.8121 1.6863 1.9049 3.1747 3.2622 4.4538 0.7959 0.7522 1.6678 1.4079 2.6226 1.9646 0.8603 0.5015 1.7483 0.9363 2.6801 1.2699 0.6395 0.23 1.2997 0.3911 1.9669 0.5314 1.2193 0.26 2.4523 0.3221 3.6923 0.2922 1.1572-0.0276 2.2867-0.2439 3.4025-0.5406 1.0835-0.2876 2.1118-0.7155 3.0919-1.2469 0.8696-0.4739 1.6954-1.0214 2.4546-1.6679 1.0997-0.9363 2.0682-1.983 2.878-3.1793 0.0552-0.0828 0.1587-0.161 0.0874-0.2738-0.0667-0.1035-0.1864-0.0713-0.2876-0.0713-0.8236-0.0023-1.6449-0.0023-2.4684-0.0023h-9.3654c-0.4279 0-0.4279 0-0.4279-0.4233v-7.1799c0-0.3888 0.0046-0.3957 0.398-0.3957h22.133c0.4463 0 0.4509 0 0.4463 0.4348z" fill="#000"/>
 <path d="m57.304 34.995c-0.0115 1.3527-0.161 2.6916-0.4256 4.019-0.2944 1.477-0.743 2.9033-1.3044 4.302-0.3658 0.9156-0.8144 1.7875-1.2952 2.641-0.6556 1.1594-1.4148 2.2522-2.2844 3.2667-0.5705 0.6672-1.1456 1.332-1.7875 1.9324-0.9593 0.8949-1.9669 1.7277-3.062 2.4639-1.1571 0.7776-2.3718 1.4424-3.6417 2.006-1.3067 0.5775-2.6571 1.0284-4.0558 1.3366-0.6924 0.1519-1.3918 0.2439-2.0865 0.3681-1.332 0.237-2.6709 0.2324-4.0098 0.2025-1.2768-0.0299-2.5421-0.2071-3.789-0.467-1.7714-0.3681-3.483-0.9501-5.1117-1.7369-1.148-0.5521-2.2453-1.1963-3.3013-1.9209-1.5206-1.0445-2.8572-2.2937-4.0972-3.6418-0.8627-0.9386-1.6057-1.9807-2.2798-3.0666-0.6648-1.0697-1.2538-2.1785-1.73-3.3426-0.5406-1.3228-0.9777-2.6778-1.2584-4.0834-0.1518-0.7615-0.2392-1.5276-0.3565-2.2913-0.1726-1.1273-0.1519-2.2591-0.1427-3.391 0.0092-0.9524 0.1519-1.9002 0.3106-2.8388 0.3037-1.822 0.8098-3.5911 1.5436-5.2889 0.3658-0.8489 0.8052-1.6633 1.2561-2.4708 0.7201-1.2951 1.6242-2.45 2.5513-3.5911 0.3106-0.3795 0.6786-0.7108 1.0214-1.0628 0.5728-0.5866 1.1526-1.1756 1.8036-1.6748 0.9064-0.6924 1.8105-1.3918 2.8158-1.9462 0.5614-0.3106 1.1112-0.6442 1.6909-0.9179 0.9202-0.4371 1.8634-0.8282 2.832-1.1526 0.7453-0.2484 1.5045-0.4463 2.266-0.6188 0.7913-0.1794 1.5988-0.2899 2.404-0.3957 1.1089-0.1449 2.2246-0.1495 3.3404-0.1173 1.516 0.046 3.009 0.2599 4.4814 0.6211 0.0759 0.0184 0.1978 0.0115 0.1978 0.1196 0 0.0898-0.1081 0.1174-0.1817 0.1588-0.9916 0.5567-1.8359 1.2906-2.595 2.128-0.6166 0.6809-1.1641 1.4102-1.5989 2.2222-0.4026 0.7523-0.7684 1.5161-0.9846 2.342-0.0805 0.3059-0.2301 0.398-0.5383 0.4049-2.3143 0.0391-4.4929 0.6073-6.5519 1.6793-1.4654 0.7638-2.7675 1.7346-3.9017 2.924-1.2031 1.2584-2.167 2.6824-2.8848 4.2744-0.6395 1.4194-1.026 2.9055-1.2055 4.4376-0.1633 1.3919-0.1265 2.786 0.122 4.1778 0.2507 1.3941 0.6441 2.7376 1.2583 4.0144 0.8121 1.6863 1.9049 3.1747 3.2622 4.4538 0.7959 0.7522 1.6678 1.4079 2.6226 1.9646 0.8603 0.5015 1.7483 0.9363 2.6801 1.2699 0.6395 0.23 1.2997 0.3911 1.9669 0.5314 1.2193 0.26 2.4523 0.3221 3.6923 0.2922 1.1572-0.0276 2.2867-0.2439 3.4025-0.5406 1.0835-0.2876 2.1118-0.7155 3.0919-1.2469 0.8696-0.4739 1.6954-1.0214 2.4546-1.6679 1.0997-0.9363 2.0682-1.983 2.878-3.1793 0.0552-0.0828 0.1587-0.161 0.0874-0.2738-0.0667-0.1035-0.1864-0.0713-0.2876-0.0713-0.8236-0.0023-1.6449-0.0023-2.4684-0.0023h-9.3654c-0.4279 0-0.4279 0-0.4279-0.4233v-7.1799c0-0.3888 0.0046-0.3957 0.398-0.3957h22.133c0.4463 0 0.4509 0 0.4463 0.4348z" fill="#fff"/>
 <path d="m51.566 22.653c-0.0069 3.0551-2.5605 5.6822-5.7375 5.6615-3.0735 0.0069-5.6891-2.5282-5.696-5.696-0.0069-3.207 2.5811-5.7444 5.6845-5.7513 3.2-0.0046 5.7559 2.5627 5.7467 5.7858z" fill="#fff"/>
 <defs>
  <linearGradient id="a" x1="11.289" x2="69.027" y1="40.264" y2="40.264" gradientUnits="userSpaceOnUse">
   <stop stop-color="#CE810F" offset="0"/>
   <stop stop-color="#CF8511" stop-opacity=".59" offset=".41"/>
   <stop stop-color="#D18F08" stop-opacity=".26" offset=".74"/>
   <stop stop-color="#D49D05" stop-opacity="0" offset="1"/>
  </linearGradient>
 </defs>
</svg>
